<?xml version="1.0" encoding="UTF-8"?>
<svg width="1143px" height="1133px" viewBox="0 0 1143 1133" version="1.1" xmlns="http://www.w3.org/2000/svg" xmlns:xlink="http://www.w3.org/1999/xlink">
    <!-- Generator: Sketch 63.1 (92452) - https://sketch.com -->
    <title>Group 2 Copy 2</title>
    <desc>Created with Sketch.</desc>
    <g id="Page-1" stroke="none" stroke-width="1" fill="none" fill-rule="evenodd">
        <g id="Group-2-Copy-2" transform="translate(1.000000, 1.000000)" fill-rule="nonzero">
            <path d="M412.409946,1004 C471.272849,1004 525.593862,993.633978 575.372984,972.901934 C625.152106,952.16989 668.027554,923.799724 703.999328,887.791436 C739.971102,851.783149 768.130824,809.955341 788.478495,762.308011 C808.826165,714.660681 819,663.558011 819,609 L819,609 L819,606.81768 C819,552.259669 809.007841,501.156998 789.023522,453.509669 C769.039203,405.862339 741.061156,364.39825 705.089382,329.117403 C669.117608,293.836556 626.423835,265.83011 577.008065,245.098066 C527.592294,224.366022 473.452957,214 414.590054,214 C355.727151,214 301.406138,224.366022 251.627016,245.098066 C201.847894,265.83011 158.972446,294.200276 123.000672,330.208564 C87.0288978,366.216851 58.8691756,408.044659 38.5215054,455.691989 C18.1738351,503.339319 8,554.441989 8,609 L8,609 L8,611.18232 C8,665.740331 17.9921595,716.843002 37.9764785,764.490331 C57.9607975,812.137661 85.9388441,853.60175 121.910618,888.882597 C157.882392,924.163444 200.576165,952.16989 249.991935,972.901934 C299.407706,993.633978 353.547043,1004 412.409946,1004 Z M417.130068,847.778135 C382.922613,847.778135 351.808385,841.430058 323.787384,828.733905 C295.766384,816.037751 271.384474,798.807257 250.641655,777.042422 C229.898837,755.277587 213.886836,729.88528 202.605654,700.8655 C191.324472,671.84572 185.683881,641.012204 185.683881,608.364952 L185.683881,608.364952 L185.683881,606.188468 C185.683881,573.541216 191.324472,542.889074 202.605654,514.232041 C213.886836,485.575009 229.534928,460.364075 249.549928,438.59924 C269.564929,416.834405 293.582929,399.785285 321.60393,387.451878 C349.62493,375.118472 380.739158,368.951768 414.946614,368.951768 C448.426251,368.951768 479.358525,375.299845 507.743434,387.995999 C536.128344,400.692153 560.692208,417.922647 581.435027,439.687482 C602.177846,461.452317 618.189846,486.844624 629.471028,515.864404 C640.75221,544.884183 646.392801,575.7177 646.392801,608.364952 L646.392801,608.364952 L646.392801,610.541435 C646.392801,643.188688 640.75221,673.84083 629.471028,702.497862 C618.189846,731.154895 602.541755,756.365829 582.526754,778.130664 C562.511754,799.895498 538.311799,816.944619 509.926889,829.278025 C481.541979,841.611432 450.609706,847.778135 417.130068,847.778135 Z" id="O-Copy" fill="#FFC220"></path>
            <path d="M487.272727,1131 C557.575758,1131 623.030303,1117.98056 683.636364,1091.94167 C744.242424,1065.90278 796.363636,1030.47778 840,985.666667 C883.636364,940.855556 917.878788,888.777778 942.727273,829.433333 C967.575758,770.088889 980,707.111111 980,640.5 L980,640.5 L980,636.866667 C980,570.255556 967.878788,507.580556 943.636364,448.841667 C919.393939,390.102778 885.454545,338.630556 841.818182,294.425 C798.181818,250.219444 746.363636,215.097222 686.363636,189.058333 C626.363636,163.019444 561.212121,150 490.909091,150 C419.393939,150 353.636364,163.019444 293.636364,189.058333 C233.636364,215.097222 181.818182,250.522222 138.181818,295.333333 C94.5454545,340.144444 60.6060606,392.222222 36.3636364,451.566667 C12.1212121,510.911111 0,573.888889 0,640.5 L0,640.5 L0,644.133333 C0,710.744444 12.1212121,773.419444 36.3636364,832.158333 C60.6060606,890.897222 94.5454545,942.369444 138.181818,986.575 C181.818182,1030.78056 233.333333,1065.90278 292.727273,1091.94167 C352.121212,1117.98056 416.969697,1131 487.272727,1131 Z M489.640162,1006.63001 C439.91582,1006.63001 393.829845,996.922432 351.382237,977.507269 C308.934628,958.092107 272.247766,932.002982 241.321652,899.239895 C210.395537,866.476809 186.13976,827.949846 168.554323,783.659006 C150.968885,739.368167 142.176166,691.740346 142.176166,640.775545 L142.176166,640.775545 L142.176166,637.135202 C142.176166,587.383848 150.665688,540.362752 167.644731,496.071912 C184.623774,451.781073 207.969959,413.25411 237.683285,380.491023 C267.396611,347.727936 303.477078,321.638812 345.924687,302.223649 C388.372295,282.808487 435.064665,273.100906 486.001795,273.100906 C535.726137,273.100906 581.812112,282.808487 624.25972,302.223649 C666.707329,321.638812 703.697388,348.031298 735.229897,381.401109 C766.762406,414.770919 791.32138,453.601244 808.906817,497.892084 C826.492255,542.182923 835.284974,589.810743 835.284974,640.775545 L835.284974,640.775545 L835.284974,644.415888 C835.284974,694.167242 826.795452,740.884977 809.816409,784.569092 C792.837366,828.253208 769.187984,866.476809 738.868263,899.239895 C708.548543,932.002982 672.164878,958.092107 629.71727,977.507269 C587.269661,996.922432 540.577292,1006.63001 489.640162,1006.63001 Z" id="o" stroke="#E51B24" opacity="0.794171288"></path>
            <path d="M648.272727,981 C718.575758,981 784.030303,967.980556 844.636364,941.941667 C905.242424,915.902778 957.363636,880.477778 1001,835.666667 C1044.63636,790.855556 1078.87879,738.777778 1103.72727,679.433333 C1128.57576,620.088889 1141,557.111111 1141,490.5 L1141,490.5 L1141,486.866667 C1141,420.255556 1128.87879,357.580556 1104.63636,298.841667 C1080.39394,240.102778 1046.45455,188.630556 1002.81818,144.425 C959.181818,100.219444 907.363636,65.0972222 847.363636,39.0583333 C787.363636,13.0194444 722.212121,0 651.909091,0 C580.393939,0 514.636364,13.0194444 454.636364,39.0583333 C394.636364,65.0972222 342.818182,100.522222 299.181818,145.333333 C255.545455,190.144444 221.606061,242.222222 197.363636,301.566667 C173.121212,360.911111 161,423.888889 161,490.5 L161,490.5 L161,494.133333 C161,560.744444 173.121212,623.419444 197.363636,682.158333 C221.606061,740.897222 255.545455,792.369444 299.181818,836.575 C342.818182,880.780556 394.333333,915.902778 453.727273,941.941667 C513.121212,967.980556 577.969697,981 648.272727,981 Z M650.640162,857.899094 C600.91582,857.899094 554.829845,848.191513 512.382237,828.776351 C469.934628,809.361188 433.247766,783.272064 402.321652,750.508977 C371.395537,717.74589 347.13976,679.218927 329.554323,634.928088 C311.968885,590.637248 303.176166,543.009428 303.176166,492.044626 L303.176166,492.044626 L303.176166,488.404284 C303.176166,438.65293 311.665688,391.631833 328.644731,347.340994 C345.623774,303.050154 368.969959,264.523191 398.683285,231.760105 C428.396611,198.997018 464.477078,172.907893 506.924687,153.492731 C549.372295,134.077568 596.064665,124.369987 647.001795,124.369987 C696.726137,124.369987 742.812112,134.077568 785.25972,153.492731 C827.707329,172.907893 864.697388,199.30038 896.229897,232.67019 C927.762406,266.040001 952.32138,304.870326 969.906817,349.161165 C987.492255,393.452005 996.284974,441.079825 996.284974,492.044626 L996.284974,492.044626 L996.284974,495.684969 C996.284974,545.436323 987.795452,592.154058 970.816409,635.838174 C953.837366,679.522289 930.187984,717.74589 899.868263,750.508977 C869.548543,783.272064 833.164878,809.361188 790.71727,828.776351 C748.269661,848.191513 701.577292,857.899094 650.640162,857.899094 Z" id="o-copy" stroke="#FFE092" opacity="0.794171288"></path>
        </g>
    </g>
</svg>